<svg xmlns="http://www.w3.org/2000/svg" viewBox="0 0 256 256" focusable="false" color="var(--token-12f1d3a7-62ce-4ab2-8240-6b9a799bcf1c, rgb(46, 160, 20))" style="user-select: none; width: 100%; height: 100%; display: inline-block; fill: var(--token-12f1d3a7-62ce-4ab2-8240-6b9a799bcf1c, rgb(46, 160, 20)); color: var(--token-12f1d3a7-62ce-4ab2-8240-6b9a799bcf1c, rgb(46, 160, 20)); flex-shrink: 0;"><g color="var(--token-12f1d3a7-62ce-4ab2-8240-6b9a799bcf1c, rgb(46, 160, 20))" weight="duotone"><path d="M216,116.69V216H152V152H104v64H40V116.69l82.34-82.35a8,8,0,0,1,11.32,0Z" opacity="0.2"></path><path d="M240,208H224V136l2.34,2.34A8,8,0,0,0,237.66,127L139.31,28.68a16,16,0,0,0-22.62,0L18.34,127a8,8,0,0,0,11.32,11.31L32,136v72H16a8,8,0,0,0,0,16H240a8,8,0,0,0,0-16ZM48,120l80-80,80,80v88H160V152a8,8,0,0,0-8-8H104a8,8,0,0,0-8,8v56H48Zm96,88H112V160h32Z"></path></g></svg>